# xmcd
#
# Track frame offsets:
#	150
#	20495
#	38138
#	56231
#	69699
#	86334
#	101376
#	120974
#	138024
#	155335
#	176188
#	196007
#	220004
#	241234
#	259263
#	270435
#
# Disc length: 3847
#
# Revision: 4
# Processed by: cddbd v1.5.1PL0 Copyright (c) Steve Scherf et al.
# Submitted via: FreeRIP 2.70 
# Normalized: r3:DSETVAR1
#
DISCID=d10f0510
DTITLE=Various Artist - Começar de Novo (Nacional)
DYEAR=2004
DGENRE=Novela
TTITLE0=Caetano Veloso - Feelings
TTITLE1=Luka e Billy - Difícil Pra Você
TTITLE2=Wilson Simoninha - Happy Hour Á Beira-Mar
TTITLE3=Elba Ramalho - Xamego
TTITLE4=Fábio Jr. - Volta
TTITLE5=Pedro Sol - Você Não Vem
TTITLE6=Capital Inicial - Não Olhe Pra Trás
TTITLE7=Danni Carlos - Não Me Leve A Mal
TTITLE8=Ira! e Pitty - Eu Quero Sempre Mais
TTITLE9=Alex Guedes - O Ar Que Eu Respiro
TTITLE10=Nando Reis e Hare Krishnas - Mantra
TTITLE11=Charlie Brown - Não É Sério
TTITLE12=Helião e Negra Li - Guerreiro, Guerreira
TTITLE13=Penélope - A Fórmula Do Amor
TTITLE14=Léo Jaime - Marcianita
TTITLE15=Paula Morelenbaum - Tomara
EXTD=
EXTT0=
EXTT1=
EXTT2=
EXTT3=
EXTT4=
EXTT5=
EXTT6=
EXTT7=
EXTT8=
EXTT9=
EXTT10=
EXTT11=
EXTT12=
EXTT13=
EXTT14=
EXTT15=
PLAYORDER=
